<mxfile host="65bd71144e">
    <diagram id="C5RBs43oDa-KdzZeNtuy" name="Page-1">
        <mxGraphModel dx="1502" dy="421" grid="1" gridSize="10" guides="1" tooltips="1" connect="1" arrows="1" fold="1" page="1" pageScale="1" pageWidth="1169" pageHeight="827" math="0" shadow="0">
            <root>
                <mxCell id="WIyWlLk6GJQsqaUBKTNV-0"/>
                <mxCell id="WIyWlLk6GJQsqaUBKTNV-1" parent="WIyWlLk6GJQsqaUBKTNV-0"/>
                <mxCell id="_broUkZbqEhw3iz0FzK7-55" style="edgeStyle=orthogonalEdgeStyle;rounded=0;orthogonalLoop=1;jettySize=auto;html=1;entryX=0.5;entryY=0;entryDx=0;entryDy=0;" parent="WIyWlLk6GJQsqaUBKTNV-1" source="_broUkZbqEhw3iz0FzK7-0" target="_broUkZbqEhw3iz0FzK7-19" edge="1">
                    <mxGeometry relative="1" as="geometry">
                        <mxPoint x="90" y="570" as="targetPoint"/>
                        <Array as="points">
                            <mxPoint x="195" y="560"/>
                            <mxPoint x="15" y="560"/>
                        </Array>
                    </mxGeometry>
                </mxCell>
                <mxCell id="_broUkZbqEhw3iz0FzK7-56" style="edgeStyle=orthogonalEdgeStyle;rounded=0;orthogonalLoop=1;jettySize=auto;html=1;entryX=0.5;entryY=0;entryDx=0;entryDy=0;" parent="WIyWlLk6GJQsqaUBKTNV-1" source="_broUkZbqEhw3iz0FzK7-0" target="_broUkZbqEhw3iz0FzK7-23" edge="1">
                    <mxGeometry relative="1" as="geometry">
                        <Array as="points">
                            <mxPoint x="195" y="560"/>
                            <mxPoint x="345" y="560"/>
                        </Array>
                    </mxGeometry>
                </mxCell>
                <mxCell id="_broUkZbqEhw3iz0FzK7-57" style="edgeStyle=orthogonalEdgeStyle;rounded=0;orthogonalLoop=1;jettySize=auto;html=1;entryX=0.5;entryY=0;entryDx=0;entryDy=0;" parent="WIyWlLk6GJQsqaUBKTNV-1" source="_broUkZbqEhw3iz0FzK7-0" target="_broUkZbqEhw3iz0FzK7-27" edge="1">
                    <mxGeometry relative="1" as="geometry">
                        <Array as="points">
                            <mxPoint x="195" y="560"/>
                            <mxPoint x="650" y="560"/>
                        </Array>
                    </mxGeometry>
                </mxCell>
                <mxCell id="_broUkZbqEhw3iz0FzK7-58" style="edgeStyle=orthogonalEdgeStyle;rounded=0;orthogonalLoop=1;jettySize=auto;html=1;entryX=0.5;entryY=0;entryDx=0;entryDy=0;" parent="WIyWlLk6GJQsqaUBKTNV-1" source="_broUkZbqEhw3iz0FzK7-0" target="_broUkZbqEhw3iz0FzK7-35" edge="1">
                    <mxGeometry relative="1" as="geometry">
                        <Array as="points">
                            <mxPoint x="195" y="560"/>
                            <mxPoint x="965" y="560"/>
                        </Array>
                    </mxGeometry>
                </mxCell>
                <mxCell id="_broUkZbqEhw3iz0FzK7-0" value="Device" style="swimlane;fontStyle=1;align=center;verticalAlign=top;childLayout=stackLayout;horizontal=1;startSize=26;horizontalStack=0;resizeParent=1;resizeParentMax=0;resizeLast=0;collapsible=1;marginBottom=0;whiteSpace=wrap;html=1;" parent="WIyWlLk6GJQsqaUBKTNV-1" vertex="1">
                    <mxGeometry x="60" y="100" width="270" height="220" as="geometry"/>
                </mxCell>
                <mxCell id="_broUkZbqEhw3iz0FzK7-1" value="&lt;div&gt;- sharedStack: std::stack&amp;lt;Frame&amp;gt; *&lt;/div&gt;&lt;div&gt;- app : Application&lt;/div&gt;&lt;div&gt;- transp : Transport&lt;/div&gt;&lt;div&gt;- internetw : Internetwork&lt;/div&gt;&lt;div&gt;- netwacc : NetworkAccess&lt;/div&gt;&lt;div&gt;- deviceName : std::string&lt;/div&gt;&lt;div&gt;&lt;br&gt;&lt;/div&gt;&lt;div&gt;&lt;br&gt;&lt;/div&gt;" style="text;strokeColor=none;fillColor=none;align=left;verticalAlign=top;spacingLeft=4;spacingRight=4;overflow=hidden;rotatable=0;points=[[0,0.5],[1,0.5]];portConstraint=eastwest;whiteSpace=wrap;html=1;" parent="_broUkZbqEhw3iz0FzK7-0" vertex="1">
                    <mxGeometry y="26" width="270" height="104" as="geometry"/>
                </mxCell>
                <mxCell id="_broUkZbqEhw3iz0FzK7-2" value="" style="line;strokeWidth=1;fillColor=none;align=left;verticalAlign=middle;spacingTop=-1;spacingLeft=3;spacingRight=3;rotatable=0;labelPosition=right;points=[];portConstraint=eastwest;strokeColor=inherit;" parent="_broUkZbqEhw3iz0FzK7-0" vertex="1">
                    <mxGeometry y="130" width="270" height="8" as="geometry"/>
                </mxCell>
                <mxCell id="_broUkZbqEhw3iz0FzK7-3" value="&lt;div&gt;+ Device(name : std::string, ip : std::string, stack : std::stack&amp;lt;Frame&amp;gt; *) &lt;br&gt;&lt;/div&gt;&lt;div&gt;+ sendMessage(str : std::string) : void&lt;/div&gt;&lt;div&gt;+ receiveMessage() : void&lt;/div&gt;&lt;div&gt;&lt;br&gt;&lt;/div&gt;" style="text;strokeColor=none;fillColor=none;align=left;verticalAlign=top;spacingLeft=4;spacingRight=4;overflow=hidden;rotatable=0;points=[[0,0.5],[1,0.5]];portConstraint=eastwest;whiteSpace=wrap;html=1;" parent="_broUkZbqEhw3iz0FzK7-0" vertex="1">
                    <mxGeometry y="138" width="270" height="82" as="geometry"/>
                </mxCell>
                <mxCell id="_broUkZbqEhw3iz0FzK7-4" value="PDU" style="swimlane;fontStyle=1;align=center;verticalAlign=top;childLayout=stackLayout;horizontal=1;startSize=26;horizontalStack=0;resizeParent=1;resizeParentMax=0;resizeLast=0;collapsible=1;marginBottom=0;whiteSpace=wrap;html=1;" parent="WIyWlLk6GJQsqaUBKTNV-1" vertex="1">
                    <mxGeometry x="400" y="1180" width="160" height="88" as="geometry"/>
                </mxCell>
                <mxCell id="_broUkZbqEhw3iz0FzK7-5" value="&lt;div&gt;+ payload : std::string&lt;/div&gt;&lt;div&gt;+ source : std::string&lt;/div&gt;&lt;div&gt;+ destination : std::string&lt;/div&gt;&lt;div&gt;&lt;br&gt;&lt;/div&gt;" style="text;strokeColor=none;fillColor=none;align=left;verticalAlign=top;spacingLeft=4;spacingRight=4;overflow=hidden;rotatable=0;points=[[0,0.5],[1,0.5]];portConstraint=eastwest;whiteSpace=wrap;html=1;" parent="_broUkZbqEhw3iz0FzK7-4" vertex="1">
                    <mxGeometry y="26" width="160" height="54" as="geometry"/>
                </mxCell>
                <mxCell id="_broUkZbqEhw3iz0FzK7-6" value="" style="line;strokeWidth=1;fillColor=none;align=left;verticalAlign=middle;spacingTop=-1;spacingLeft=3;spacingRight=3;rotatable=0;labelPosition=right;points=[];portConstraint=eastwest;strokeColor=inherit;" parent="_broUkZbqEhw3iz0FzK7-4" vertex="1">
                    <mxGeometry y="80" width="160" height="8" as="geometry"/>
                </mxCell>
                <mxCell id="_broUkZbqEhw3iz0FzK7-11" value="Protocol" style="swimlane;fontStyle=1;align=center;verticalAlign=top;childLayout=stackLayout;horizontal=1;startSize=26;horizontalStack=0;resizeParent=1;resizeParentMax=0;resizeLast=0;collapsible=1;marginBottom=0;whiteSpace=wrap;html=1;" parent="WIyWlLk6GJQsqaUBKTNV-1" vertex="1">
                    <mxGeometry x="490" y="300" width="160" height="80" as="geometry"/>
                </mxCell>
                <mxCell id="_broUkZbqEhw3iz0FzK7-13" value="" style="line;strokeWidth=1;fillColor=none;align=left;verticalAlign=middle;spacingTop=-1;spacingLeft=3;spacingRight=3;rotatable=0;labelPosition=right;points=[];portConstraint=eastwest;strokeColor=inherit;" parent="_broUkZbqEhw3iz0FzK7-11" vertex="1">
                    <mxGeometry y="26" width="160" height="8" as="geometry"/>
                </mxCell>
                <mxCell id="_broUkZbqEhw3iz0FzK7-14" value="&lt;div&gt;+ incapsulate(): void&lt;/div&gt;&lt;div&gt;+ decapsulate(): void&lt;/div&gt;" style="text;strokeColor=none;fillColor=none;align=left;verticalAlign=top;spacingLeft=4;spacingRight=4;overflow=hidden;rotatable=0;points=[[0,0.5],[1,0.5]];portConstraint=eastwest;whiteSpace=wrap;html=1;" parent="_broUkZbqEhw3iz0FzK7-11" vertex="1">
                    <mxGeometry y="34" width="160" height="46" as="geometry"/>
                </mxCell>
                <mxCell id="_broUkZbqEhw3iz0FzK7-19" value="Application" style="swimlane;fontStyle=1;align=center;verticalAlign=top;childLayout=stackLayout;horizontal=1;startSize=26;horizontalStack=0;resizeParent=1;resizeParentMax=0;resizeLast=0;collapsible=1;marginBottom=0;whiteSpace=wrap;html=1;" parent="WIyWlLk6GJQsqaUBKTNV-1" vertex="1">
                    <mxGeometry x="-100" y="630" width="230" height="160" as="geometry"/>
                </mxCell>
                <mxCell id="_broUkZbqEhw3iz0FzK7-20" value="+ tr : Transport *" style="text;strokeColor=none;fillColor=none;align=left;verticalAlign=top;spacingLeft=4;spacingRight=4;overflow=hidden;rotatable=0;points=[[0,0.5],[1,0.5]];portConstraint=eastwest;whiteSpace=wrap;html=1;" parent="_broUkZbqEhw3iz0FzK7-19" vertex="1">
                    <mxGeometry y="26" width="230" height="26" as="geometry"/>
                </mxCell>
                <mxCell id="_broUkZbqEhw3iz0FzK7-21" value="" style="line;strokeWidth=1;fillColor=none;align=left;verticalAlign=middle;spacingTop=-1;spacingLeft=3;spacingRight=3;rotatable=0;labelPosition=right;points=[];portConstraint=eastwest;strokeColor=inherit;" parent="_broUkZbqEhw3iz0FzK7-19" vertex="1">
                    <mxGeometry y="52" width="230" height="8" as="geometry"/>
                </mxCell>
                <mxCell id="_broUkZbqEhw3iz0FzK7-22" value="&lt;div&gt;&lt;font style=&quot;font-size: 10px;&quot;&gt;+ incapsulate(str : std::string, d : std::string ): void&lt;/font&gt;&lt;/div&gt;&lt;div&gt;&lt;font style=&quot;font-size: 10px;&quot;&gt;+ decapsulate (m : Message) : void&lt;/font&gt;&lt;/div&gt;&lt;div&gt;&lt;font style=&quot;font-size: 10px;&quot;&gt;+ decode (encode : std::string) : std:: string&lt;/font&gt;&lt;/div&gt;&lt;div&gt;+ setTransp (transp : Transport *) : void&lt;/div&gt;&lt;div&gt;+printToScreen (s : std::string) : void&lt;/div&gt;" style="text;strokeColor=none;fillColor=none;align=left;verticalAlign=top;spacingLeft=4;spacingRight=4;overflow=hidden;rotatable=0;points=[[0,0.5],[1,0.5]];portConstraint=eastwest;whiteSpace=wrap;html=1;" parent="_broUkZbqEhw3iz0FzK7-19" vertex="1">
                    <mxGeometry y="60" width="230" height="100" as="geometry"/>
                </mxCell>
                <mxCell id="_broUkZbqEhw3iz0FzK7-63" style="edgeStyle=orthogonalEdgeStyle;rounded=0;orthogonalLoop=1;jettySize=auto;html=1;exitX=0.75;exitY=0;exitDx=0;exitDy=0;endArrow=block;endFill=0;entryX=0.5;entryY=1;entryDx=0;entryDy=0;" parent="WIyWlLk6GJQsqaUBKTNV-1" source="_broUkZbqEhw3iz0FzK7-23" target="_broUkZbqEhw3iz0FzK7-11" edge="1">
                    <mxGeometry relative="1" as="geometry">
                        <mxPoint x="570.0000000000002" y="410" as="targetPoint"/>
                        <Array as="points">
                            <mxPoint x="407" y="490"/>
                            <mxPoint x="570" y="490"/>
                        </Array>
                    </mxGeometry>
                </mxCell>
                <mxCell id="_broUkZbqEhw3iz0FzK7-76" style="edgeStyle=orthogonalEdgeStyle;rounded=0;orthogonalLoop=1;jettySize=auto;html=1;entryX=0.5;entryY=0;entryDx=0;entryDy=0;" parent="WIyWlLk6GJQsqaUBKTNV-1" source="_broUkZbqEhw3iz0FzK7-23" target="_broUkZbqEhw3iz0FzK7-43" edge="1">
                    <mxGeometry relative="1" as="geometry"/>
                </mxCell>
                <mxCell id="_broUkZbqEhw3iz0FzK7-23" value="Transport" style="swimlane;fontStyle=1;align=center;verticalAlign=top;childLayout=stackLayout;horizontal=1;startSize=26;horizontalStack=0;resizeParent=1;resizeParentMax=0;resizeLast=0;collapsible=1;marginBottom=0;whiteSpace=wrap;html=1;" parent="WIyWlLk6GJQsqaUBKTNV-1" vertex="1">
                    <mxGeometry x="220" y="610" width="250" height="240" as="geometry"/>
                </mxCell>
                <mxCell id="_broUkZbqEhw3iz0FzK7-24" value="&lt;div&gt;- source : std::string&lt;/div&gt;&lt;div&gt;- dest : std::string&lt;/div&gt;&lt;div&gt;- maxSegmentSize : int&lt;/div&gt;&lt;div&gt;- appl : Application *&lt;/div&gt;&lt;div&gt;- netw : Internetwork *&lt;/div&gt;" style="text;strokeColor=none;fillColor=none;align=left;verticalAlign=top;spacingLeft=4;spacingRight=4;overflow=hidden;rotatable=0;points=[[0,0.5],[1,0.5]];portConstraint=eastwest;whiteSpace=wrap;html=1;" parent="_broUkZbqEhw3iz0FzK7-23" vertex="1">
                    <mxGeometry y="26" width="250" height="84" as="geometry"/>
                </mxCell>
                <mxCell id="_broUkZbqEhw3iz0FzK7-25" value="" style="line;strokeWidth=1;fillColor=none;align=left;verticalAlign=middle;spacingTop=-1;spacingLeft=3;spacingRight=3;rotatable=0;labelPosition=right;points=[];portConstraint=eastwest;strokeColor=inherit;" parent="_broUkZbqEhw3iz0FzK7-23" vertex="1">
                    <mxGeometry y="110" width="250" height="8" as="geometry"/>
                </mxCell>
                <mxCell id="_broUkZbqEhw3iz0FzK7-26" value="&lt;div&gt;&lt;font style=&quot;font-size: 10px;&quot;&gt;- segmentate (s : std::string, num : int) : std::vector&amp;lt;std::string&amp;gt; &lt;br&gt;+ incapsulate(m : Message, dest : std::string) : void&lt;/font&gt;&lt;/div&gt;&lt;div&gt;&lt;font style=&quot;font-size: 10px;&quot;&gt;+ decapsulate (s : std::vector&amp;lt;Segment&amp;gt;) : void&lt;/font&gt;&lt;/div&gt;&lt;div&gt;&lt;font style=&quot;font-size: 10px;&quot;&gt;+ setAppl (appls : Application *) : void&lt;/font&gt;&lt;/div&gt;&lt;div&gt;+ setNetw (netwk: Internetwork *) : void&lt;/div&gt;&lt;div&gt;+Transport(src : std::string) &lt;br&gt;&lt;br&gt;&lt;/div&gt;" style="text;strokeColor=none;fillColor=none;align=left;verticalAlign=top;spacingLeft=4;spacingRight=4;overflow=hidden;rotatable=0;points=[[0,0.5],[1,0.5]];portConstraint=eastwest;whiteSpace=wrap;html=1;" parent="_broUkZbqEhw3iz0FzK7-23" vertex="1">
                    <mxGeometry y="118" width="250" height="122" as="geometry"/>
                </mxCell>
                <mxCell id="_broUkZbqEhw3iz0FzK7-64" style="edgeStyle=orthogonalEdgeStyle;rounded=0;orthogonalLoop=1;jettySize=auto;html=1;exitX=0.25;exitY=0;exitDx=0;exitDy=0;endArrow=block;endFill=0;" parent="WIyWlLk6GJQsqaUBKTNV-1" source="_broUkZbqEhw3iz0FzK7-27" edge="1">
                    <mxGeometry relative="1" as="geometry">
                        <mxPoint x="570.0000000000002" y="380" as="targetPoint"/>
                        <Array as="points">
                            <mxPoint x="587" y="490"/>
                            <mxPoint x="571" y="490"/>
                            <mxPoint x="571" y="380"/>
                        </Array>
                    </mxGeometry>
                </mxCell>
                <mxCell id="_broUkZbqEhw3iz0FzK7-77" style="edgeStyle=orthogonalEdgeStyle;rounded=0;orthogonalLoop=1;jettySize=auto;html=1;entryX=0.5;entryY=0;entryDx=0;entryDy=0;" parent="WIyWlLk6GJQsqaUBKTNV-1" source="_broUkZbqEhw3iz0FzK7-27" target="_broUkZbqEhw3iz0FzK7-47" edge="1">
                    <mxGeometry relative="1" as="geometry"/>
                </mxCell>
                <mxCell id="_broUkZbqEhw3iz0FzK7-27" value="Internetwork" style="swimlane;fontStyle=1;align=center;verticalAlign=top;childLayout=stackLayout;horizontal=1;startSize=26;horizontalStack=0;resizeParent=1;resizeParentMax=0;resizeLast=0;collapsible=1;marginBottom=0;whiteSpace=wrap;html=1;" parent="WIyWlLk6GJQsqaUBKTNV-1" vertex="1">
                    <mxGeometry x="525" y="610" width="250" height="200" as="geometry"/>
                </mxCell>
                <mxCell id="_broUkZbqEhw3iz0FzK7-28" value="- ipAddress : int&lt;div&gt;- transp: Transport*&lt;/div&gt;&lt;div&gt;- netaccs: NetworkAccess *&lt;/div&gt;" style="text;strokeColor=none;fillColor=none;align=left;verticalAlign=top;spacingLeft=4;spacingRight=4;overflow=hidden;rotatable=0;points=[[0,0.5],[1,0.5]];portConstraint=eastwest;whiteSpace=wrap;html=1;" parent="_broUkZbqEhw3iz0FzK7-27" vertex="1">
                    <mxGeometry y="26" width="250" height="64" as="geometry"/>
                </mxCell>
                <mxCell id="_broUkZbqEhw3iz0FzK7-29" value="" style="line;strokeWidth=1;fillColor=none;align=left;verticalAlign=middle;spacingTop=-1;spacingLeft=3;spacingRight=3;rotatable=0;labelPosition=right;points=[];portConstraint=eastwest;strokeColor=inherit;" parent="_broUkZbqEhw3iz0FzK7-27" vertex="1">
                    <mxGeometry y="90" width="250" height="8" as="geometry"/>
                </mxCell>
                <mxCell id="_broUkZbqEhw3iz0FzK7-30" value="&lt;div&gt;&lt;font style=&quot;font-size: 10px;&quot;&gt;- getIP (ip : std::string) : int&lt;br&gt;+ incapsulate(s : Segment) : void&lt;/font&gt;&lt;/div&gt;&lt;div&gt;&lt;font style=&quot;font-size: 10px;&quot;&gt;+ decapsulate (d : std::vector&amp;lt;Datagram&amp;gt;) : void&lt;/font&gt;&lt;/div&gt;&lt;div&gt;+ setTransp (transprt: Transport*) : void&lt;/div&gt;&lt;div&gt;+ setNetAcc (netaccess : NetworkAccess *)&lt;/div&gt;&lt;div&gt;+Internetwork(ip: std::string) &lt;br&gt;&lt;/div&gt;&lt;div&gt;&lt;br&gt;&lt;/div&gt;" style="text;strokeColor=none;fillColor=none;align=left;verticalAlign=top;spacingLeft=4;spacingRight=4;overflow=hidden;rotatable=0;points=[[0,0.5],[1,0.5]];portConstraint=eastwest;whiteSpace=wrap;html=1;" parent="_broUkZbqEhw3iz0FzK7-27" vertex="1">
                    <mxGeometry y="98" width="250" height="102" as="geometry"/>
                </mxCell>
                <mxCell id="_broUkZbqEhw3iz0FzK7-65" style="edgeStyle=orthogonalEdgeStyle;rounded=0;orthogonalLoop=1;jettySize=auto;html=1;exitX=0.25;exitY=0;exitDx=0;exitDy=0;endArrow=block;endFill=0;" parent="WIyWlLk6GJQsqaUBKTNV-1" source="_broUkZbqEhw3iz0FzK7-35" edge="1">
                    <mxGeometry relative="1" as="geometry">
                        <mxPoint x="570.0000000000002" y="380" as="targetPoint"/>
                        <Array as="points">
                            <mxPoint x="903" y="490"/>
                            <mxPoint x="571" y="490"/>
                            <mxPoint x="571" y="380"/>
                        </Array>
                    </mxGeometry>
                </mxCell>
                <mxCell id="_broUkZbqEhw3iz0FzK7-78" style="edgeStyle=orthogonalEdgeStyle;rounded=0;orthogonalLoop=1;jettySize=auto;html=1;" parent="WIyWlLk6GJQsqaUBKTNV-1" source="_broUkZbqEhw3iz0FzK7-35" target="_broUkZbqEhw3iz0FzK7-51" edge="1">
                    <mxGeometry relative="1" as="geometry"/>
                </mxCell>
                <mxCell id="_broUkZbqEhw3iz0FzK7-35" value="NetworkAccess" style="swimlane;fontStyle=1;align=center;verticalAlign=top;childLayout=stackLayout;horizontal=1;startSize=26;horizontalStack=0;resizeParent=1;resizeParentMax=0;resizeLast=0;collapsible=1;marginBottom=0;whiteSpace=wrap;html=1;" parent="WIyWlLk6GJQsqaUBKTNV-1" vertex="1">
                    <mxGeometry x="840" y="610" width="250" height="200" as="geometry"/>
                </mxCell>
                <mxCell id="_broUkZbqEhw3iz0FzK7-36" value="- naccs: int&lt;div&gt;- datastack: std::stack&amp;lt;Frame&amp;gt; *&lt;/div&gt;&lt;div&gt;- netwk: Internetwork *&lt;/div&gt;" style="text;strokeColor=none;fillColor=none;align=left;verticalAlign=top;spacingLeft=4;spacingRight=4;overflow=hidden;rotatable=0;points=[[0,0.5],[1,0.5]];portConstraint=eastwest;whiteSpace=wrap;html=1;" parent="_broUkZbqEhw3iz0FzK7-35" vertex="1">
                    <mxGeometry y="26" width="250" height="64" as="geometry"/>
                </mxCell>
                <mxCell id="_broUkZbqEhw3iz0FzK7-37" value="" style="line;strokeWidth=1;fillColor=none;align=left;verticalAlign=middle;spacingTop=-1;spacingLeft=3;spacingRight=3;rotatable=0;labelPosition=right;points=[];portConstraint=eastwest;strokeColor=inherit;" parent="_broUkZbqEhw3iz0FzK7-35" vertex="1">
                    <mxGeometry y="90" width="250" height="8" as="geometry"/>
                </mxCell>
                <mxCell id="_broUkZbqEhw3iz0FzK7-38" value="&lt;div&gt;&lt;font style=&quot;font-size: 10px;&quot;&gt;- putFrameInMemory(f : Frame) : void&lt;br&gt;+ incapsulate(s : Datagram) : void&lt;/font&gt;&lt;/div&gt;&lt;div&gt;&lt;font style=&quot;font-size: 10px;&quot;&gt;+ decapsulate () : void&lt;/font&gt;&lt;/div&gt;&lt;div&gt;&lt;font style=&quot;font-size: 10px;&quot;&gt;+ setNetwAndStack(internetw : Internetwork *, stk : std::stack&amp;lt;Frame&amp;gt; *)&lt;/font&gt;&lt;/div&gt;&lt;div&gt;+ NetworkAccess(naccsAddr : int)&lt;/div&gt;&lt;div&gt;&lt;br&gt;&lt;/div&gt;&lt;div&gt;&lt;br&gt;&lt;/div&gt;" style="text;strokeColor=none;fillColor=none;align=left;verticalAlign=top;spacingLeft=4;spacingRight=4;overflow=hidden;rotatable=0;points=[[0,0.5],[1,0.5]];portConstraint=eastwest;whiteSpace=wrap;html=1;" parent="_broUkZbqEhw3iz0FzK7-35" vertex="1">
                    <mxGeometry y="98" width="250" height="102" as="geometry"/>
                </mxCell>
                <mxCell id="_broUkZbqEhw3iz0FzK7-79" style="edgeStyle=orthogonalEdgeStyle;rounded=0;orthogonalLoop=1;jettySize=auto;html=1;entryX=0.5;entryY=0;entryDx=0;entryDy=0;dashed=1;endArrow=block;endFill=0;" parent="WIyWlLk6GJQsqaUBKTNV-1" source="_broUkZbqEhw3iz0FzK7-39" target="_broUkZbqEhw3iz0FzK7-4" edge="1">
                    <mxGeometry relative="1" as="geometry">
                        <Array as="points">
                            <mxPoint x="-5" y="1150"/>
                            <mxPoint x="480" y="1150"/>
                        </Array>
                    </mxGeometry>
                </mxCell>
                <mxCell id="_broUkZbqEhw3iz0FzK7-39" value="Message" style="swimlane;fontStyle=1;align=center;verticalAlign=top;childLayout=stackLayout;horizontal=1;startSize=26;horizontalStack=0;resizeParent=1;resizeParentMax=0;resizeLast=0;collapsible=1;marginBottom=0;whiteSpace=wrap;html=1;" parent="WIyWlLk6GJQsqaUBKTNV-1" vertex="1">
                    <mxGeometry x="-90" y="890" width="170" height="120" as="geometry"/>
                </mxCell>
                <mxCell id="_broUkZbqEhw3iz0FzK7-40" value="&lt;div&gt;+ payload : std::string&lt;/div&gt;&lt;div&gt;+ source : std::string&lt;/div&gt;&lt;div&gt;+ destination : std::string&lt;/div&gt;" style="text;strokeColor=none;fillColor=none;align=left;verticalAlign=top;spacingLeft=4;spacingRight=4;overflow=hidden;rotatable=0;points=[[0,0.5],[1,0.5]];portConstraint=eastwest;whiteSpace=wrap;html=1;" parent="_broUkZbqEhw3iz0FzK7-39" vertex="1">
                    <mxGeometry y="26" width="170" height="54" as="geometry"/>
                </mxCell>
                <mxCell id="_broUkZbqEhw3iz0FzK7-41" value="" style="line;strokeWidth=1;fillColor=none;align=left;verticalAlign=middle;spacingTop=-1;spacingLeft=3;spacingRight=3;rotatable=0;labelPosition=right;points=[];portConstraint=eastwest;strokeColor=inherit;" parent="_broUkZbqEhw3iz0FzK7-39" vertex="1">
                    <mxGeometry y="80" width="170" height="8" as="geometry"/>
                </mxCell>
                <mxCell id="_broUkZbqEhw3iz0FzK7-42" value="+ Message(msg : std::string) " style="text;strokeColor=none;fillColor=none;align=left;verticalAlign=top;spacingLeft=4;spacingRight=4;overflow=hidden;rotatable=0;points=[[0,0.5],[1,0.5]];portConstraint=eastwest;whiteSpace=wrap;html=1;" parent="_broUkZbqEhw3iz0FzK7-39" vertex="1">
                    <mxGeometry y="88" width="170" height="32" as="geometry"/>
                </mxCell>
                <mxCell id="_broUkZbqEhw3iz0FzK7-80" style="edgeStyle=orthogonalEdgeStyle;rounded=0;orthogonalLoop=1;jettySize=auto;html=1;dashed=1;endArrow=block;endFill=0;" parent="WIyWlLk6GJQsqaUBKTNV-1" source="_broUkZbqEhw3iz0FzK7-43" edge="1">
                    <mxGeometry relative="1" as="geometry">
                        <mxPoint x="480" y="1180" as="targetPoint"/>
                        <Array as="points">
                            <mxPoint x="345" y="1150"/>
                            <mxPoint x="480" y="1150"/>
                        </Array>
                    </mxGeometry>
                </mxCell>
                <mxCell id="_broUkZbqEhw3iz0FzK7-43" value="Segment" style="swimlane;fontStyle=1;align=center;verticalAlign=top;childLayout=stackLayout;horizontal=1;startSize=26;horizontalStack=0;resizeParent=1;resizeParentMax=0;resizeLast=0;collapsible=1;marginBottom=0;whiteSpace=wrap;html=1;" parent="WIyWlLk6GJQsqaUBKTNV-1" vertex="1">
                    <mxGeometry x="245" y="890" width="200" height="160" as="geometry"/>
                </mxCell>
                <mxCell id="_broUkZbqEhw3iz0FzK7-44" value="- seqNumber&lt;br&gt;&lt;div&gt;+ payload : std::string&lt;/div&gt;&lt;div&gt;+ source : std::string&lt;/div&gt;&lt;div&gt;+ destination : std::string&lt;/div&gt;&lt;br&gt;&lt;div&gt;&lt;br&gt;&lt;/div&gt;" style="text;strokeColor=none;fillColor=none;align=left;verticalAlign=top;spacingLeft=4;spacingRight=4;overflow=hidden;rotatable=0;points=[[0,0.5],[1,0.5]];portConstraint=eastwest;whiteSpace=wrap;html=1;" parent="_broUkZbqEhw3iz0FzK7-43" vertex="1">
                    <mxGeometry y="26" width="200" height="64" as="geometry"/>
                </mxCell>
                <mxCell id="_broUkZbqEhw3iz0FzK7-45" value="" style="line;strokeWidth=1;fillColor=none;align=left;verticalAlign=middle;spacingTop=-1;spacingLeft=3;spacingRight=3;rotatable=0;labelPosition=right;points=[];portConstraint=eastwest;strokeColor=inherit;" parent="_broUkZbqEhw3iz0FzK7-43" vertex="1">
                    <mxGeometry y="90" width="200" height="8" as="geometry"/>
                </mxCell>
                <mxCell id="_broUkZbqEhw3iz0FzK7-46" value="+ Segment(p : std::string, src: std::string, dst std::string, sqnmb : int) " style="text;strokeColor=none;fillColor=none;align=left;verticalAlign=top;spacingLeft=4;spacingRight=4;overflow=hidden;rotatable=0;points=[[0,0.5],[1,0.5]];portConstraint=eastwest;whiteSpace=wrap;html=1;" parent="_broUkZbqEhw3iz0FzK7-43" vertex="1">
                    <mxGeometry y="98" width="200" height="62" as="geometry"/>
                </mxCell>
                <mxCell id="_broUkZbqEhw3iz0FzK7-82" style="edgeStyle=orthogonalEdgeStyle;rounded=0;orthogonalLoop=1;jettySize=auto;html=1;entryX=0.5;entryY=0;entryDx=0;entryDy=0;dashed=1;endArrow=block;endFill=0;" parent="WIyWlLk6GJQsqaUBKTNV-1" source="_broUkZbqEhw3iz0FzK7-47" target="_broUkZbqEhw3iz0FzK7-4" edge="1">
                    <mxGeometry relative="1" as="geometry">
                        <Array as="points">
                            <mxPoint x="650" y="1150"/>
                            <mxPoint x="480" y="1150"/>
                        </Array>
                    </mxGeometry>
                </mxCell>
                <mxCell id="_broUkZbqEhw3iz0FzK7-47" value="Segment" style="swimlane;fontStyle=1;align=center;verticalAlign=top;childLayout=stackLayout;horizontal=1;startSize=26;horizontalStack=0;resizeParent=1;resizeParentMax=0;resizeLast=0;collapsible=1;marginBottom=0;whiteSpace=wrap;html=1;" parent="WIyWlLk6GJQsqaUBKTNV-1" vertex="1">
                    <mxGeometry x="550" y="890" width="200" height="160" as="geometry"/>
                </mxCell>
                <mxCell id="_broUkZbqEhw3iz0FzK7-48" value="- ip_add : std::bitset&amp;lt;32&amp;gt;&lt;div&gt;+ myseg: Segment&lt;/div&gt;&lt;div&gt;+ source : std::string&lt;/div&gt;&lt;div&gt;+ destination : std::string&lt;/div&gt;&lt;br&gt;&lt;div&gt;&lt;br&gt;&lt;/div&gt;" style="text;strokeColor=none;fillColor=none;align=left;verticalAlign=top;spacingLeft=4;spacingRight=4;overflow=hidden;rotatable=0;points=[[0,0.5],[1,0.5]];portConstraint=eastwest;whiteSpace=wrap;html=1;" parent="_broUkZbqEhw3iz0FzK7-47" vertex="1">
                    <mxGeometry y="26" width="200" height="74" as="geometry"/>
                </mxCell>
                <mxCell id="_broUkZbqEhw3iz0FzK7-49" value="" style="line;strokeWidth=1;fillColor=none;align=left;verticalAlign=middle;spacingTop=-1;spacingLeft=3;spacingRight=3;rotatable=0;labelPosition=right;points=[];portConstraint=eastwest;strokeColor=inherit;" parent="_broUkZbqEhw3iz0FzK7-47" vertex="1">
                    <mxGeometry y="100" width="200" height="8" as="geometry"/>
                </mxCell>
                <mxCell id="_broUkZbqEhw3iz0FzK7-50" value="+ Datagram(s: Segment, a : std::bitset&amp;lt;8&amp;gt;) " style="text;strokeColor=none;fillColor=none;align=left;verticalAlign=top;spacingLeft=4;spacingRight=4;overflow=hidden;rotatable=0;points=[[0,0.5],[1,0.5]];portConstraint=eastwest;whiteSpace=wrap;html=1;" parent="_broUkZbqEhw3iz0FzK7-47" vertex="1">
                    <mxGeometry y="108" width="200" height="52" as="geometry"/>
                </mxCell>
                <mxCell id="_broUkZbqEhw3iz0FzK7-83" style="edgeStyle=orthogonalEdgeStyle;rounded=0;orthogonalLoop=1;jettySize=auto;html=1;dashed=1;endArrow=block;endFill=0;" parent="WIyWlLk6GJQsqaUBKTNV-1" source="_broUkZbqEhw3iz0FzK7-51" edge="1">
                    <mxGeometry relative="1" as="geometry">
                        <mxPoint x="480" y="1180" as="targetPoint"/>
                        <Array as="points">
                            <mxPoint x="960" y="1150"/>
                            <mxPoint x="481" y="1150"/>
                            <mxPoint x="481" y="1180"/>
                        </Array>
                    </mxGeometry>
                </mxCell>
                <mxCell id="_broUkZbqEhw3iz0FzK7-51" value="Frame" style="swimlane;fontStyle=1;align=center;verticalAlign=top;childLayout=stackLayout;horizontal=1;startSize=26;horizontalStack=0;resizeParent=1;resizeParentMax=0;resizeLast=0;collapsible=1;marginBottom=0;whiteSpace=wrap;html=1;" parent="WIyWlLk6GJQsqaUBKTNV-1" vertex="1">
                    <mxGeometry x="860" y="900" width="200" height="160" as="geometry"/>
                </mxCell>
                <mxCell id="_broUkZbqEhw3iz0FzK7-52" value="+ header : int&lt;div&gt;+ padding: int&lt;/div&gt;&lt;div&gt;+ datg: Datagram&lt;/div&gt;&lt;br&gt;&lt;div&gt;&lt;br&gt;&lt;/div&gt;" style="text;strokeColor=none;fillColor=none;align=left;verticalAlign=top;spacingLeft=4;spacingRight=4;overflow=hidden;rotatable=0;points=[[0,0.5],[1,0.5]];portConstraint=eastwest;whiteSpace=wrap;html=1;" parent="_broUkZbqEhw3iz0FzK7-51" vertex="1">
                    <mxGeometry y="26" width="200" height="74" as="geometry"/>
                </mxCell>
                <mxCell id="_broUkZbqEhw3iz0FzK7-53" value="" style="line;strokeWidth=1;fillColor=none;align=left;verticalAlign=middle;spacingTop=-1;spacingLeft=3;spacingRight=3;rotatable=0;labelPosition=right;points=[];portConstraint=eastwest;strokeColor=inherit;" parent="_broUkZbqEhw3iz0FzK7-51" vertex="1">
                    <mxGeometry y="100" width="200" height="8" as="geometry"/>
                </mxCell>
                <mxCell id="_broUkZbqEhw3iz0FzK7-54" value="+ Frame(d: Datagram, na :int) " style="text;strokeColor=none;fillColor=none;align=left;verticalAlign=top;spacingLeft=4;spacingRight=4;overflow=hidden;rotatable=0;points=[[0,0.5],[1,0.5]];portConstraint=eastwest;whiteSpace=wrap;html=1;" parent="_broUkZbqEhw3iz0FzK7-51" vertex="1">
                    <mxGeometry y="108" width="200" height="52" as="geometry"/>
                </mxCell>
                <mxCell id="_broUkZbqEhw3iz0FzK7-62" style="edgeStyle=orthogonalEdgeStyle;rounded=0;orthogonalLoop=1;jettySize=auto;html=1;exitX=0.75;exitY=0;exitDx=0;exitDy=0;endArrow=block;endFill=0;entryX=0.5;entryY=1;entryDx=0;entryDy=0;" parent="WIyWlLk6GJQsqaUBKTNV-1" source="_broUkZbqEhw3iz0FzK7-19" target="_broUkZbqEhw3iz0FzK7-11" edge="1">
                    <mxGeometry relative="1" as="geometry">
                        <mxPoint x="571" y="410" as="targetPoint"/>
                        <Array as="points">
                            <mxPoint x="72" y="490"/>
                            <mxPoint x="570" y="490"/>
                        </Array>
                    </mxGeometry>
                </mxCell>
                <mxCell id="_broUkZbqEhw3iz0FzK7-66" style="edgeStyle=orthogonalEdgeStyle;rounded=0;orthogonalLoop=1;jettySize=auto;html=1;entryX=0;entryY=0.5;entryDx=0;entryDy=0;" parent="WIyWlLk6GJQsqaUBKTNV-1" source="_broUkZbqEhw3iz0FzK7-20" target="_broUkZbqEhw3iz0FzK7-24" edge="1">
                    <mxGeometry relative="1" as="geometry"/>
                </mxCell>
                <mxCell id="_broUkZbqEhw3iz0FzK7-67" style="edgeStyle=orthogonalEdgeStyle;rounded=0;orthogonalLoop=1;jettySize=auto;html=1;entryX=-0.02;entryY=0.656;entryDx=0;entryDy=0;entryPerimeter=0;" parent="WIyWlLk6GJQsqaUBKTNV-1" source="_broUkZbqEhw3iz0FzK7-24" target="_broUkZbqEhw3iz0FzK7-28" edge="1">
                    <mxGeometry relative="1" as="geometry"/>
                </mxCell>
                <mxCell id="_broUkZbqEhw3iz0FzK7-68" style="edgeStyle=orthogonalEdgeStyle;rounded=0;orthogonalLoop=1;jettySize=auto;html=1;entryX=0;entryY=0.5;entryDx=0;entryDy=0;" parent="WIyWlLk6GJQsqaUBKTNV-1" source="_broUkZbqEhw3iz0FzK7-28" target="_broUkZbqEhw3iz0FzK7-36" edge="1">
                    <mxGeometry relative="1" as="geometry"/>
                </mxCell>
                <mxCell id="_broUkZbqEhw3iz0FzK7-69" style="edgeStyle=orthogonalEdgeStyle;rounded=0;orthogonalLoop=1;jettySize=auto;html=1;entryX=1;entryY=0.5;entryDx=0;entryDy=0;" parent="WIyWlLk6GJQsqaUBKTNV-1" source="_broUkZbqEhw3iz0FzK7-38" target="_broUkZbqEhw3iz0FzK7-30" edge="1">
                    <mxGeometry relative="1" as="geometry"/>
                </mxCell>
                <mxCell id="_broUkZbqEhw3iz0FzK7-70" style="edgeStyle=orthogonalEdgeStyle;rounded=0;orthogonalLoop=1;jettySize=auto;html=1;entryX=1.025;entryY=0.227;entryDx=0;entryDy=0;entryPerimeter=0;" parent="WIyWlLk6GJQsqaUBKTNV-1" source="_broUkZbqEhw3iz0FzK7-30" target="_broUkZbqEhw3iz0FzK7-26" edge="1">
                    <mxGeometry relative="1" as="geometry"/>
                </mxCell>
                <mxCell id="_broUkZbqEhw3iz0FzK7-71" style="edgeStyle=orthogonalEdgeStyle;rounded=0;orthogonalLoop=1;jettySize=auto;html=1;entryX=1.033;entryY=0.452;entryDx=0;entryDy=0;entryPerimeter=0;" parent="WIyWlLk6GJQsqaUBKTNV-1" source="_broUkZbqEhw3iz0FzK7-26" target="_broUkZbqEhw3iz0FzK7-22" edge="1">
                    <mxGeometry relative="1" as="geometry"/>
                </mxCell>
                <mxCell id="_broUkZbqEhw3iz0FzK7-72" value="&lt;font style=&quot;font-size: 17px;&quot;&gt;&lt;b&gt;STACK&lt;/b&gt;&lt;/font&gt;" style="ellipse;whiteSpace=wrap;html=1;strokeWidth=2;fillWeight=2;hachureGap=8;fillColor=#990000;fillStyle=dots;sketch=1;labelBorderColor=#FFFFFF;labelBackgroundColor=default;" parent="WIyWlLk6GJQsqaUBKTNV-1" vertex="1">
                    <mxGeometry x="1010" y="480" width="120" height="60" as="geometry"/>
                </mxCell>
                <mxCell id="_broUkZbqEhw3iz0FzK7-73" style="edgeStyle=orthogonalEdgeStyle;rounded=0;orthogonalLoop=1;jettySize=auto;html=1;entryX=1;entryY=1;entryDx=0;entryDy=0;" parent="WIyWlLk6GJQsqaUBKTNV-1" source="_broUkZbqEhw3iz0FzK7-36" target="_broUkZbqEhw3iz0FzK7-72" edge="1">
                    <mxGeometry relative="1" as="geometry"/>
                </mxCell>
                <mxCell id="_broUkZbqEhw3iz0FzK7-75" style="edgeStyle=orthogonalEdgeStyle;rounded=0;orthogonalLoop=1;jettySize=auto;html=1;entryX=0.564;entryY=-0.017;entryDx=0;entryDy=0;entryPerimeter=0;" parent="WIyWlLk6GJQsqaUBKTNV-1" source="_broUkZbqEhw3iz0FzK7-19" target="_broUkZbqEhw3iz0FzK7-39" edge="1">
                    <mxGeometry relative="1" as="geometry"/>
                </mxCell>
            </root>
        </mxGraphModel>
    </diagram>
</mxfile>